<svg width="62" height="39" viewBox="0 0 62 39" fill="none" xmlns="http://www.w3.org/2000/svg">
<path d="M30.0521 0.409062L18.211 10.2871C17.3002 12.1392 19.1219 13.374 20.3363 12.4479L30.3557 4.11332C30.6593 3.80464 30.9629 3.80464 31.2665 4.11332L41.5895 12.4479C43.4111 13.374 44.322 11.5218 43.7148 10.2871L40.6786 7.81757V1.64382C39.7678 -0.208304 37.9461 0.717759 37.6425 1.64382V5.34807C36.0232 4.01042 32.6024 1.14991 31.8737 0.409062C31.1451 -0.331789 30.3557 0.100374 30.0521 0.409062Z" fill="#233D4D"/>
<path d="M0.954046 23.571C-0.532418 27.8197 2.12843 32.6853 3.64466 34.5871C7.47198 32.11 8.98305 32.4374 11.4566 32.0539C14.2393 31.6223 15.7691 31.9199 16.9666 32.0916C18.1767 32.2651 21.1084 34.4563 29.9558 35.0009C38.8033 35.5454 44.8401 31.9988 46.0974 31.4733C47.531 30.8743 55.9801 25.1494 57.8845 24.061C59.789 22.9726 62.0539 21.0021 60.5839 20.0075C59.114 19.0128 58.1618 19.557 57.228 19.8009C56.0469 20.1095 53.1326 21.6587 49.6288 23.8542C46.8258 25.6107 41.0931 28.1959 38.008 28.5642C35.2314 28.8957 29.2563 28.878 26.7199 27.8694C24.0296 26.7997 25.9525 25.411 27.4225 26.4057C31.0243 27.5919 36.2576 27.1504 38.424 26.7814C43.1481 24.661 39.2929 22.6152 38.3776 22.5589C37.7675 22.5214 30.732 22.3897 29.2436 21.6953C28.0528 21.1398 23.9893 19.1616 22.1064 18.242C18.4897 17.296 16.9569 17.3223 14.8213 17.1908C12.0756 17.0218 9.66748 18.5621 6.68583 20.0055C4.4763 21.0751 2.1343 22.6389 0.954046 23.571Z" fill="#F2A307"/>
<path d="M48.2121 20.1082C47.2252 20.7657 44.3147 22.5618 42.9829 23.3777C42.3569 23.9377 42.8911 24.8685 44.0881 24.6428C44.6074 24.545 50.8334 20.7683 53.9206 18.6639C54.6736 18.1506 56.1998 17.4239 56.6643 17.3363C57.8612 17.1107 58.3718 16.9357 58.7819 16.5688C59.4079 16.0088 59.7392 15.4306 59.7759 14.8343C59.8126 14.238 58.947 13.8855 57.7501 14.1111C56.2986 14.3847 54.7118 15.4205 53.7911 15.9624C52.8705 16.5043 49.4458 19.2863 48.2121 20.1082Z" fill="#F2A307"/>
<path d="M45.4049 17.8202C44.6663 18.3105 42.4883 19.6497 41.4916 20.258C41.0232 20.6756 41.2046 22.1005 42.4725 21.5632C42.9016 21.3814 47.5095 18.5546 48.8876 17.6509C49.885 16.997 50.8273 16.232 51.4612 15.9634C52.3578 15.5835 53.0081 15.4555 53.315 15.182C53.7835 14.7644 54.0313 14.3332 54.0587 13.8884C54.0861 13.4437 53.4382 13.1806 52.5424 13.3486C51.4561 13.5525 50.2686 14.3248 49.5797 14.7288C48.8907 15.1329 46.328 17.2073 45.4049 17.8202Z" fill="#F2A307"/>
</svg>
