<svg width="416" height="224" viewBox="0 0 416 224" fill="none" xmlns="http://www.w3.org/2000/svg">
<path d="M206.989 0.993583L178.228 24.9866C176.015 29.4853 180.44 32.4844 183.39 30.2351L207.726 9.99098C208.464 9.2412 209.201 9.2412 209.939 9.99098L235.012 30.2351C239.437 32.4844 241.649 27.9857 240.175 24.9866L232.8 18.9884V3.99273C230.588 -0.505956 226.163 1.74339 225.425 3.99273V12.9901C221.492 9.74105 213.183 2.79306 211.413 0.993583C209.644 -0.805892 207.726 0.243802 206.989 0.993583Z" fill="white"/>
<path d="M136.316 57.2542C132.705 67.574 139.168 79.3924 142.851 84.0116C152.148 77.9949 155.818 78.7903 161.826 77.8586C168.585 76.8104 172.301 77.5331 175.209 77.9502C178.149 78.3718 185.27 83.694 206.759 85.0167C228.249 86.3394 242.913 77.7248 245.966 76.4486C249.448 74.9935 269.971 61.088 274.597 58.4444C279.222 55.8008 284.724 51.0147 281.153 48.5987C277.583 46.1827 275.27 47.5045 273.002 48.097C270.133 48.8464 263.054 52.6093 254.544 57.9422C247.735 62.2085 233.811 68.488 226.318 69.3825C219.574 70.1875 205.06 70.1448 198.9 67.6949C192.365 65.0965 197.036 61.7235 200.606 64.1395C209.355 67.0207 222.066 65.9484 227.328 65.0522C238.803 59.9017 229.439 54.9329 227.215 54.796C225.733 54.7048 208.645 54.3851 205.029 52.6984C202.137 51.349 192.267 46.5443 187.694 44.3105C178.909 42.0128 175.186 42.0765 169.999 41.7573C163.329 41.3468 157.48 45.0881 150.238 48.594C144.871 51.192 139.183 54.9904 136.316 57.2542Z" fill="#F2A307"/>
<path d="M251.101 48.8421C248.703 50.4392 241.634 54.8018 238.399 56.7835C236.879 58.1438 238.176 60.4045 241.083 59.8565C242.345 59.6187 257.468 50.4456 264.966 45.3339C266.795 44.0872 270.502 42.3221 271.63 42.1095C274.538 41.5615 275.778 41.1364 276.774 40.2453C278.294 38.885 279.099 37.4806 279.188 36.0323C279.277 34.5839 277.175 33.7275 274.268 34.2755C270.742 34.9401 266.888 37.456 264.652 38.7722C262.415 40.0884 254.097 46.8457 251.101 48.8421Z" fill="#F2A307"/>
<path d="M244.284 43.2837C242.49 44.4746 237.2 47.7274 234.779 49.205C233.641 50.2193 234.082 53.6803 237.161 52.3753C238.203 51.9337 249.396 45.0675 252.743 42.8726C255.166 41.2842 257.454 39.4263 258.994 38.7738C261.172 37.851 262.752 37.5402 263.497 36.8757C264.635 35.8614 265.237 34.814 265.303 33.7337C265.37 32.6535 263.796 32.0144 261.62 32.4227C258.982 32.9178 256.098 34.7937 254.424 35.7751C252.751 36.7564 246.526 41.7952 244.284 43.2837Z" fill="#F2A307"/>
<path fillRule="evenodd" clipRule="evenodd" d="M175.851 112.226C175.851 113.875 176.448 114.016 183.465 114.016C190.483 114.016 191.08 113.875 191.08 112.226C191.08 110.576 190.483 110.436 183.465 110.436C176.448 110.436 175.851 110.576 175.851 112.226ZM208.101 112.226C208.101 113.874 208.699 114.016 215.632 114.016C222.722 114.016 223.136 113.911 222.695 112.226C222.276 110.627 221.473 110.436 215.163 110.436C208.699 110.436 208.101 110.587 208.101 112.226ZM240.092 112.226C239.655 113.897 240.065 114.016 246.259 114.016C252.297 114.016 252.894 113.855 252.894 112.226C252.894 110.61 252.297 110.436 246.728 110.436C241.314 110.436 240.504 110.654 240.092 112.226ZM331.729 112.226C331.729 113.866 332.327 114.016 338.896 114.016C345.465 114.016 346.063 113.866 346.063 112.226C346.063 110.585 345.465 110.436 338.896 110.436C332.327 110.436 331.729 110.585 331.729 112.226ZM177.228 119.61C177.572 121.21 178.031 122.82 178.249 123.19C178.466 123.559 181.896 123.861 185.87 123.861H193.096L192.536 121.064C192.228 119.526 191.976 117.915 191.976 117.484C191.976 117.054 188.517 116.701 184.29 116.701H176.604L177.228 119.61ZM206.514 120.281L205.605 123.861H215.268H224.932L224.022 120.281L223.113 116.701H215.268H207.423L206.514 120.281ZM239.053 117.82C238.862 118.435 238.527 120.046 238.31 121.4L237.913 123.861H244.043C250.001 123.861 250.188 123.792 250.712 121.4C251.009 120.046 251.407 118.435 251.597 117.82C251.85 116.998 250.275 116.701 245.671 116.701C241.437 116.701 239.287 117.064 239.053 117.82ZM331.729 120.281V123.861H338.896H346.063V120.281V116.701H338.896H331.729V120.281ZM179.447 129.007C179.487 134.201 180.077 134.601 187.705 134.601C194.701 134.601 194.86 134.552 194.332 132.587C194.036 131.48 193.786 129.868 193.78 129.007C193.769 127.647 192.824 127.441 186.601 127.441C180.367 127.441 179.436 127.645 179.447 129.007ZM205.024 128.53C204.828 129.162 204.431 130.76 204.142 132.083L203.616 134.489L215.119 134.508L226.62 134.527L226.082 131.208L225.543 127.888L215.462 127.635C207.864 127.444 205.293 127.665 205.024 128.53ZM237.263 128.56C237.073 129.175 236.676 130.785 236.378 132.14L235.839 134.601H242.127C247.514 134.601 248.417 134.376 248.427 133.035C248.434 132.174 248.683 130.562 248.979 129.455C249.5 127.514 249.303 127.441 243.564 127.441C239.581 127.441 237.494 127.811 237.263 128.56ZM331.729 131.021V134.601H338.896H346.063V131.021V127.441H338.896H331.729V131.021ZM262.131 130.193C254.002 134.213 254.869 134.604 271.822 134.564L287.384 134.528L284.4 131.977C279.476 127.768 268.769 126.911 262.131 130.193ZM319.62 129.71C318.134 130.443 316.416 131.843 315.805 132.822C314.738 134.529 314.929 134.601 320.524 134.601H326.354V131.468C326.354 128.81 326.049 128.339 324.339 128.356C323.229 128.367 321.106 128.977 319.62 129.71ZM388.616 129.523C385.238 130.844 381.897 133.03 381.897 133.922C381.897 134.295 388.397 134.601 396.34 134.601C409.689 134.601 410.691 134.488 409.554 133.117C406.116 128.965 394.945 127.048 388.616 129.523ZM298.583 131.916V134.601H304.854H311.125V131.916V129.231H304.854H298.583V131.916ZM359.48 131.692L357.537 134.153L363.527 134.42C369.65 134.692 371.303 134.075 373.019 130.87C373.832 129.353 373.43 129.231 367.66 129.231C361.924 129.231 361.266 129.429 359.48 131.692ZM283.473 140.683L276.874 140.948L277.426 143.704C277.73 145.22 277.978 146.812 277.978 147.243C277.978 147.673 281.256 148.026 285.262 148.026H292.546L292.013 144.746C291.72 142.943 291.164 141.232 290.776 140.943C290.389 140.655 287.102 140.537 283.473 140.683ZM182.458 143.663C182.766 145.201 183.017 146.812 183.017 147.243C183.017 147.673 186.041 148.026 189.736 148.026C196.954 148.026 197.213 147.809 195.891 142.88C195.391 141.018 194.842 140.866 188.624 140.866H181.898L182.458 143.663ZM202.428 141.463C202.099 141.79 201.83 143.401 201.83 145.043V148.026H206.337C210.98 148.026 211.059 147.961 212.075 143.327C212.611 140.881 212.584 140.866 207.82 140.866C205.183 140.866 202.756 141.134 202.428 141.463ZM216.669 143.327C216.967 144.681 217.364 146.292 217.554 146.907C217.781 147.64 219.762 148.026 223.303 148.026C229.079 148.026 229.424 147.659 228.142 142.88C227.652 141.057 227.057 140.866 221.865 140.866H216.13L216.669 143.327ZM234.646 142.88C233.366 147.648 233.716 148.026 239.403 148.026C245.208 148.026 245.232 148.01 246.141 143.774L246.766 140.866H240.976C235.729 140.866 235.136 141.055 234.646 142.88ZM251.976 143.161C250.224 147.764 250.556 148.026 258.16 148.026H265.218L266.128 144.446L267.037 140.866H259.944C253.153 140.866 252.813 140.964 251.976 143.161ZM298.753 144.222L299.031 147.578L306.739 147.835C314.244 148.085 314.525 148.019 317.361 145.374C319.419 143.451 321.164 142.656 323.314 142.656C324.986 142.656 326.354 142.253 326.354 141.761C326.354 141.202 321.111 140.866 312.415 140.866H298.474L298.753 144.222ZM331.729 144.446V148.026H338.896H346.063V144.446V140.866H338.896H331.729V144.446ZM350.201 144.446L347.83 148.026L354.337 148.02C360.713 148.014 360.88 147.956 362.615 145.112C363.588 143.515 364.528 141.907 364.705 141.537C364.881 141.167 362.223 140.866 358.798 140.866H352.572L350.201 144.446ZM377.786 143.101C376.678 147.512 377.577 148.026 386.413 148.026H394.569L392.713 145.667C391.692 144.371 390.856 142.76 390.856 142.087C390.856 141.172 389.289 140.866 384.602 140.866C378.679 140.866 378.318 140.984 377.786 143.101ZM402.515 141.537C402.523 141.907 402.88 142.76 403.308 143.436C403.955 144.456 404.976 144.354 409.341 142.836L414.596 141.007L408.549 140.936C405.223 140.898 402.508 141.167 402.515 141.537ZM185.145 156.193C185.453 157.731 185.705 159.342 185.705 159.773C185.705 160.203 190.946 160.556 197.351 160.556C207.841 160.556 208.998 160.4 209.01 158.989C209.016 158.128 209.265 156.517 209.562 155.409C210.074 153.499 209.848 153.396 205.159 153.396H200.217L199.325 156.752C198.761 158.871 198.398 159.393 198.339 158.168C198.131 153.8 197.498 153.396 190.872 153.396H184.585L185.145 156.193ZM219.179 156.147C219.491 157.71 219.747 159.342 219.747 159.773C219.747 160.724 241.874 160.833 242.433 159.884C242.651 159.516 243.11 157.904 243.454 156.304L244.078 153.396H238.183H232.289V156.081C232.289 159.447 230.716 159.627 230.333 156.304C230.061 153.939 229.827 153.832 224.33 153.574L218.61 153.304L219.179 156.147ZM250.377 156.752L250.654 160.108L258.045 160.368L265.436 160.628V157.011V153.396H257.768H250.098L250.377 156.752ZM278.131 156.976L277.991 160.556H285.599H293.208V156.976V153.396H285.74H278.272L278.131 156.976ZM298.583 156.976V160.556H305.655H312.728L313.07 156.976L313.412 153.396H305.997H298.583V156.976ZM331.729 156.976V160.556H340.716C347.878 160.556 349.808 160.283 350.218 159.213C350.502 158.475 351.094 157.871 351.534 157.871C351.974 157.871 352.334 158.475 352.334 159.213C352.334 160.294 353.728 160.556 359.501 160.556C363.443 160.556 366.668 160.368 366.668 160.139C366.668 159.909 365.989 158.298 365.158 156.559L363.649 153.396H347.689H331.729V156.976ZM381.001 153.968C381.001 154.788 383.615 156.738 387.46 158.786C390.283 160.289 392.546 160.556 402.466 160.556C415.342 160.556 416.16 160.131 411.635 155.801C409.127 153.399 409.101 153.396 395.062 153.396C387.329 153.396 381.001 153.653 381.001 153.968ZM187.701 167.716L188.61 171.296H197.488C203.809 171.296 206.466 170.973 206.711 170.177C206.901 169.562 207.299 167.951 207.596 166.597L208.135 164.136H197.463H186.792L187.701 167.716ZM220.975 166.149C221.271 167.256 221.52 168.867 221.527 169.729C221.537 171.119 222.584 171.296 230.841 171.296C239.73 171.296 240.167 171.206 240.684 169.282C242.07 164.111 242.116 164.136 230.841 164.136C220.486 164.136 220.437 164.145 220.975 166.149ZM251.102 164.897C251.102 165.316 251.545 166.927 252.086 168.477L253.07 171.296H260.209C266.92 171.296 267.318 171.188 266.84 169.506C265.2 163.727 265.856 164.136 258.209 164.136C254.301 164.136 251.102 164.478 251.102 164.897ZM277.631 166.29C277.333 167.475 276.843 169.086 276.542 169.87C276.069 171.102 276.984 171.296 283.28 171.296C290.275 171.296 290.599 171.204 291.438 169C293.191 164.396 292.859 164.136 285.242 164.136C278.521 164.136 278.146 164.242 277.631 166.29ZM298.583 167.716V171.296H305.75H312.916V167.716V164.136H305.75H298.583V167.716ZM331.729 167.716V171.296H338.896H346.063V167.716V164.136H338.896H331.729V167.716ZM355.38 167.492L356.541 170.848L363.844 171.108C367.86 171.251 371.147 171.2 371.147 170.994C371.147 170.787 370.537 169.16 369.791 167.377L368.435 164.136H361.327H354.22L355.38 167.492ZM401.603 166.365C402.07 167.592 402.218 169.203 401.933 169.945C401.499 171.074 402.511 171.296 408.124 171.296C414.326 171.296 414.875 171.143 415.375 169.282C416.717 164.277 416.524 164.136 408.347 164.136H400.755L401.603 166.365ZM380.105 166.715C377.746 167.131 376.899 167.767 376.683 169.282C376.408 171.217 376.661 171.296 383.11 171.296H389.823L388.482 168.611C387.082 165.807 386.277 165.626 380.105 166.715ZM189.718 177.33C190.064 179.172 190.535 180.985 190.767 181.357C191.311 182.239 204.512 182.245 204.539 181.364C204.551 180.995 204.912 179.183 205.341 177.337L206.121 173.981H197.605H189.089L189.718 177.33ZM222.74 175.547C222.973 176.409 223.412 178.22 223.713 179.574C224.251 181.989 224.386 182.035 230.91 182.035C234.567 182.035 237.731 181.733 237.942 181.364C238.153 180.995 238.598 179.183 238.931 177.337L239.538 173.981H230.926C223.16 173.981 222.356 174.134 222.74 175.547ZM255.589 175.784C258.423 181.075 270.37 184.345 278.662 182.1C282.326 181.107 288.728 176.453 288.728 174.782C288.728 174.338 281.133 173.981 271.676 173.981C254.86 173.981 254.637 174.006 255.589 175.784ZM298.583 178.008V182.035H305.75H312.916V178.008V173.981H305.75H298.583V178.008ZM331.729 178.008V182.035H338.896H346.063V178.008V173.981H338.896H331.729V178.008ZM358.216 175.994C360.198 182.35 359.685 182.035 368.064 182.035C372.305 182.035 375.639 181.733 375.472 181.364C375.305 180.995 374.586 179.183 373.874 177.337L372.578 173.981H365.084C357.722 173.981 357.6 174.016 358.216 175.994ZM379.172 175.701C383.852 184.436 402.411 185.361 411.236 177.3C412.345 176.287 413.252 175.126 413.252 174.72C413.252 174.313 405.377 173.981 395.752 173.981C378.763 173.981 378.278 174.031 379.172 175.701Z" fill="#F2A307"/>
<path fillRule="evenodd" clipRule="evenodd" d="M31.5128 111.191C20.8029 112.987 10.6833 121.143 5.30459 132.316C-4.50949 152.7 -0.281958 175.352 14.4871 181.517C19.2342 183.498 28.3236 183.087 33.8161 180.643C38.462 178.576 47.9652 171.697 47.9383 170.42C47.9302 170.062 47.5638 169.201 47.1222 168.504C46.4691 167.473 45.765 167.707 43.3291 169.762C33.8313 177.772 20.9229 178.713 16.3433 171.731C7.8094 158.718 13.671 130.658 27.3695 118.944C36.9659 110.738 48.8476 115.645 48.8476 127.814C48.8476 130.645 49.0384 130.837 51.8389 130.837H54.8301L55.6749 123.149L56.5206 115.461L53.1719 113.754C51.33 112.815 47.0837 111.651 43.7359 111.167C36.9614 110.189 37.5016 110.187 31.5128 111.191ZM73.3071 135.22C58.7378 142.011 48.3038 169.317 56.5412 179.097C62.1062 185.705 70.3624 182.337 78.5846 170.107C79.9669 168.05 81.0984 166.556 81.0984 166.786C81.0984 167.016 80.6845 169.439 80.1792 172.171C78.4995 181.25 81.824 184.521 89.3053 181.149C93.979 179.042 100.644 173.371 99.6443 172.352C99.2511 171.951 98.2432 172.12 97.4047 172.727C96.5662 173.334 94.6706 174.4 93.1924 175.097C88.0618 177.513 88.0072 176.161 92.361 154.605C94.5424 143.802 96.3279 134.706 96.3279 134.389C96.3279 134.072 94.4771 133.743 92.215 133.658C88.7516 133.526 88.0269 133.791 87.622 135.338C87.1758 137.044 87.028 137.072 85.5337 135.72C83.0047 133.434 77.6117 133.213 73.3071 135.22ZM115.03 134.237C112.4 135.372 104.391 142.666 104.391 143.925C104.391 145.585 104.684 145.513 108.539 142.898C110.602 141.5 112.191 140.957 112.708 141.474C113.225 141.99 112.117 149.251 109.804 160.514C107.747 170.527 105.991 179.322 105.9 180.058C105.781 181.022 106.915 181.533 109.965 181.886L114.195 182.377L115.164 177.416C117.509 165.408 118.261 162.538 119.354 161.427C119.993 160.777 120.516 159.753 120.516 159.152C120.516 158.552 122.55 154.759 125.035 150.724C129.505 143.467 132.385 140.66 133.504 142.47C133.81 142.964 135.468 143.367 137.189 143.367H140.319L140.047 138.669C139.797 134.318 139.599 133.949 137.375 133.693C133.624 133.259 128.487 138.581 123.678 147.884C121.4 152.291 119.419 155.897 119.276 155.897C119.134 155.897 119.843 151.649 120.854 146.456C122.202 139.527 122.437 136.609 121.737 135.492C120.708 133.849 117.374 133.225 115.03 134.237ZM160.381 134.315C150.585 136.857 141.398 147.718 138.441 160.253C137.106 165.911 137.724 173.927 139.732 176.987C143.46 182.67 152.215 184.045 160.141 180.19C165.052 177.801 173.371 170.634 173.371 168.791C173.371 166.96 172.864 167.155 167.323 171.119C161.05 175.608 156.475 176.957 152.253 175.566C148.357 174.281 147.392 172.453 147.392 166.364V161.498L151.647 160.925C160.502 159.735 169.22 154.113 172.406 147.539C174.803 142.591 174.76 139.565 172.25 136.65C170.032 134.072 165.076 133.098 160.381 134.315ZM85.1423 139.233C86.4135 141.171 86.4 142.086 84.9971 149.302C84.1488 153.668 82.7745 158.247 81.9431 159.477C81.1118 160.708 79.3944 163.561 78.1268 165.817C75.8379 169.891 69.3689 176.482 67.6579 176.482C67.1669 176.482 65.9584 175.677 64.973 174.692C59.8541 169.578 66.0238 148.287 74.9635 140.219C79.1857 136.408 83.0442 136.035 85.1423 139.233ZM164.841 142.472C164.826 146.261 164.321 148.066 162.652 150.31C160.417 153.313 152.816 157.687 149.832 157.687C148.399 157.687 148.238 157.251 148.767 154.779C150.653 145.96 157.878 136.743 162.487 137.275C164.737 137.536 164.86 137.807 164.841 142.472ZM57.7658 192.816C56.7732 194.415 55.2673 198.04 54.4198 200.87L52.8789 206.014L47.7278 206.016C44.8951 206.016 42.5748 205.714 42.5721 205.346C42.5704 204.977 43.6355 201.745 44.9399 198.164C46.2442 194.583 47.0398 191.383 46.7083 191.052C46.3768 190.72 45.0089 191.087 43.6687 191.866C42.3294 192.647 39.5424 193.563 37.4774 193.903C32.6067 194.705 31.6678 195.887 33.18 199.305C34.2568 201.738 34.3751 201.797 34.4414 199.932C34.4951 198.41 35.5047 197.425 38.3213 196.148C40.4158 195.198 42.6062 194.412 43.1894 194.402C44.861 194.37 40.9318 204.981 38.8624 206.087C37.6852 206.716 37.292 207.576 37.6557 208.723C38.2577 210.617 36.621 214.373 35.4958 213.677C35.0998 213.433 34.3142 214.246 33.7489 215.484C32.3934 218.457 32.4176 218.547 34.5811 218.547C35.9975 218.547 36.991 217.271 38.7594 213.177L41.0779 207.807H46.6393H52.1999L51.4062 212.049C50.5802 216.466 50.8776 218.547 52.3334 218.547C53.4577 218.547 55.4097 212.582 54.6742 211.392C53.3143 209.195 59.7277 192.592 61.936 192.592C63.631 192.592 63.5127 191.121 61.764 190.45C59.7062 189.661 59.734 189.645 57.7658 192.816ZM127.774 193.968C123.371 198.977 120.299 205.82 120.176 210.89C120.073 215.153 120.222 215.451 123.295 217.117L126.521 218.866L130.462 216.83C135.562 214.195 137.528 212.405 136.957 210.916C136.623 210.051 135.365 210.582 132.408 212.838C129.38 215.146 127.596 215.885 125.537 215.686C123.158 215.454 122.717 215.016 122.487 212.66C121.852 206.17 129.185 193.487 133.571 193.487C136.094 193.487 136.22 194.199 134.447 198.438C133.238 201.329 133.263 201.542 134.808 201.542C135.862 201.542 136.824 200.516 137.449 198.724C139.017 194.232 138.669 193.037 135.458 191.877C131.227 190.348 130.869 190.446 127.774 193.968ZM201.613 191.661C201.321 192.133 198.778 193.213 195.961 194.061C189.138 196.114 188.2 196.998 189.594 200.055C190.848 202.805 192.234 203.266 191.564 200.71C191.219 199.387 191.963 198.549 194.748 197.13C196.748 196.111 198.58 195.277 198.819 195.277C199.059 195.277 198.471 197.555 197.511 200.34C194.982 207.684 195.179 211.691 198.167 213.647C200.552 215.208 200.582 215.199 203.318 212.132C204.832 210.436 206.963 207.862 208.055 206.413L210.04 203.779L208.835 207.392C208.171 209.379 206.709 213.14 205.585 215.751C203.711 220.102 203.328 220.467 200.998 220.125C197.741 219.647 197.766 220.44 201.071 222.389C203.44 223.788 203.818 223.801 205.084 222.537C205.852 221.769 208.076 216.158 210.024 210.067C211.974 203.976 214.233 197.708 215.047 196.137C215.989 194.317 216.214 192.971 215.666 192.424C215.119 191.877 213.632 193.668 211.563 197.364C203.019 212.627 195.785 217.271 198.497 205.751C199.661 200.813 202.581 194.316 204.065 193.364C205.045 192.735 204.191 190.802 202.935 190.802C202.5 190.802 201.905 191.189 201.613 191.661ZM260.952 194.158C256.743 198.485 253.122 206.31 253.111 211.102C253.104 214.244 253.533 215.152 255.789 216.757C258.817 218.91 260.369 218.693 266.316 215.284C268.756 213.886 270.124 212.472 270.124 211.349C270.124 209.129 269.629 209.148 267.175 211.463C264.277 214.195 260.424 216.01 258.193 215.693C251.937 214.803 260.007 193.487 266.599 193.487C268.216 193.487 268.465 193.892 268.112 195.948C267.88 197.302 267.373 199.155 266.985 200.066C266.423 201.385 266.625 201.657 267.977 201.401C270.274 200.966 272.735 193.652 270.954 192.552C270.298 192.146 269.468 191.997 269.109 192.218C268.749 192.44 268.203 192.212 267.893 191.711C266.789 189.928 264.167 190.852 260.952 194.158ZM336.2 191.318C335.916 191.6 334.337 191.953 332.691 192.101C327.725 192.546 318.204 194.478 316.507 195.384C314.59 196.409 314.502 199.389 316.3 202.437L317.618 204.674L317.063 202.202C316.75 200.807 316.962 199.183 317.548 198.477C318.589 197.225 327.208 194.728 327.946 195.466C328.593 196.112 323.664 209.974 322.444 210.939C320.768 212.266 320.414 218.099 322.009 218.099C322.707 218.099 323.57 217.093 323.929 215.862C324.286 214.631 325.841 209.513 327.383 204.487L330.188 195.35L333.526 194.806C335.362 194.507 337.465 194.184 338.199 194.088C340.263 193.818 340.47 190.802 338.424 190.802C337.484 190.802 336.483 191.034 336.2 191.318ZM380.683 195.053C378.018 201.774 377.645 202.437 376.525 202.45C375.688 202.461 375.663 202.64 376.431 203.129C377.22 203.629 377.164 204.997 376.207 208.68C374.742 214.323 374.596 217.335 375.754 218.049C376.975 218.804 378.869 217.84 380.129 215.824C381.161 214.173 381.11 214.119 379.479 215.137C378.505 215.745 377.508 216.042 377.263 215.797C377.019 215.554 377.437 212.649 378.192 209.343C379.523 203.513 379.65 203.329 382.403 203.242C385.073 203.159 385.107 203.115 383.001 202.512C381.428 202.061 380.855 201.358 381.074 200.148C381.557 197.489 383.837 193.487 384.869 193.487C385.378 193.487 385.546 193.084 385.241 192.592C384.069 190.698 381.959 191.838 380.683 195.053ZM62.6581 203.415C60.827 205.437 58.7925 211.099 58.7414 214.314C58.6957 217.196 61.7748 219.094 65.1307 218.252C67.9777 217.537 70.6787 212.174 70.7432 207.108C70.7951 202.979 70.7656 202.936 67.4464 202.384C64.8807 201.957 63.76 202.199 62.6581 203.415ZM74.3248 203.392C73.463 204.343 73.1898 205.122 73.7183 205.122C74.246 205.122 74.8811 204.619 75.1302 204.003C76.1685 201.432 75.6184 206.936 74.3517 211.798C72.8207 217.67 73.8339 220.476 75.7564 215.688C77.4773 211.402 82.7145 203.332 83.7752 203.332C85.0795 203.332 84.8923 206.772 83.2977 212.14C81.4701 218.286 82.5953 219.964 85.1369 214.881C86.7064 211.743 86.9976 210.029 86.5667 206.474C85.8527 200.583 84.0197 200.244 80.2141 205.301L77.317 209.149L77.8849 205.897C78.5667 201.992 76.7508 200.714 74.3248 203.392ZM90.1599 204.833C86.3741 209.422 86.5971 210.784 90.4152 206.39C92.0905 204.461 93.7353 203.152 94.0703 203.478C94.5917 203.987 93.6842 208.298 91.3219 216.533C90.3346 219.972 93.0105 218.867 95.1337 214.96C96.2016 212.994 96.7892 211.387 96.439 211.387C96.0896 211.387 95.8208 209.284 95.8414 206.712C95.8907 200.705 94.0641 200.1 90.1599 204.833ZM102.144 205.134C100.895 207.11 99.6318 210.492 99.3353 212.652C98.8748 216.006 99.0638 216.72 100.632 217.559C102.964 218.806 104.287 218.222 107.078 214.715C109.333 211.883 108.692 212.011 104.177 215.294C101.152 217.494 100.417 216.874 101.188 212.771C101.699 210.048 102.135 209.597 104.252 209.597C107.511 209.597 108.87 208.096 108.87 204.495C108.87 201.946 108.565 201.542 106.642 201.542C105.015 201.542 103.8 202.512 102.144 205.134ZM142.615 205.676C140.963 207.949 139.103 211.215 138.481 212.933C137.5 215.646 137.55 216.252 138.862 217.527C140.27 218.893 140.673 218.665 144.704 214.209L149.034 209.422L148.235 212.866C147.177 217.417 147.194 217.652 148.57 217.652C149.217 217.652 150.434 216.215 151.272 214.457C152.111 212.7 152.387 211.516 151.886 211.825C150.69 212.564 150.73 210.567 151.982 206.977C153.475 202.697 151.594 201.31 149.701 205.296C147.623 209.672 140.316 217.652 140.265 215.602C140.181 212.238 145.956 203.332 148.221 203.332C148.809 203.332 149.04 202.929 148.735 202.437C147.588 200.582 145.52 201.675 142.615 205.676ZM161.416 205.352C160.014 207.441 159.052 208.545 159.278 207.807C159.504 207.069 159.972 205.559 160.319 204.451C161.222 201.57 158.763 201.804 156.808 204.785C155.961 206.076 155.713 206.857 156.257 206.522C157.531 205.736 157.495 206.345 155.923 212.248C154.91 216.049 154.862 217.292 155.71 217.835C156.424 218.294 157.105 217.689 157.691 216.078C159.326 211.584 163.238 204.768 164.406 204.378C165.107 204.145 165.303 204.407 164.906 205.049C164.547 205.629 164.513 206.777 164.829 207.601C165.325 208.891 165.521 208.916 166.239 207.782C166.697 207.057 167.079 205.356 167.087 204.003C167.108 200.26 164.401 200.905 161.416 205.352ZM170.24 206.241C167.282 212.748 167.077 215.726 169.475 217.346C171.249 218.544 171.66 218.421 174.657 215.793C178.781 212.176 178.236 211.467 173.7 214.547C170.717 216.573 170.194 216.694 169.932 215.415C169.766 214.598 169.874 212.955 170.173 211.764C170.595 210.085 171.312 209.597 173.357 209.597C176.282 209.597 177.851 207.586 177.851 203.839C177.851 201.874 177.455 201.542 175.114 201.542C172.68 201.542 172.14 202.063 170.24 206.241ZM217.749 203.295C216.075 205.144 213.685 211.821 213.685 214.651C213.685 216.053 214.438 217.138 215.858 217.784C221.053 220.149 225.459 215.535 225.662 207.519L225.779 202.949L222.429 202.388C219.934 201.97 218.74 202.202 217.749 203.295ZM276.098 204.451C272.933 208.674 271.02 212.769 271.02 215.317C271.02 219.447 272.988 219.051 277.526 214.007C282.131 208.891 282.202 208.941 280.316 215.98C280.101 216.783 280.448 217.64 281.088 217.885C281.801 218.159 282.828 216.983 283.742 214.843C284.563 212.925 284.858 211.587 284.397 211.871C283.33 212.531 283.351 211.733 284.508 207.572C286.043 202.048 284.537 202.041 280.93 207.554C276.73 213.976 272.811 217.824 272.811 215.526C272.811 211.774 278.958 203.345 281.713 203.319C282.944 203.306 282.951 203.2 281.77 202.437C279.536 200.995 278.38 201.406 276.098 204.451ZM289.743 203.027C288.921 204.038 288.875 204.339 289.609 203.899C291.532 202.744 290.472 209.192 287.604 216.086C287.144 217.194 287.37 217.652 288.378 217.652C289.173 217.652 290.768 215.774 291.989 213.401C293.191 211.062 295.398 207.74 296.895 206.017L299.614 202.884L299.65 205.651C299.671 207.172 299.087 210.394 298.353 212.811C296.771 218.019 296.727 218.547 297.872 218.547C299.482 218.547 301.606 213.061 302.021 207.831C302.367 203.459 302.182 202.553 300.835 202.029C299.665 201.572 298.377 202.373 296.003 205.03L292.768 208.653L292.868 205.414C292.981 201.763 291.616 200.72 289.743 203.027ZM341.772 205.745C338.842 210.361 338.413 210.298 340.403 205.541C341.616 202.639 341.59 202.437 340.015 202.437C337.797 202.437 336.809 205.685 336.141 215.168C335.862 219.117 337.393 218.431 339.218 213.788C340.151 211.416 341.944 207.993 343.204 206.181L345.495 202.884L345.211 205.492C345.047 207.002 345.398 208.256 346.047 208.475C346.822 208.735 347.167 207.725 347.167 205.196C347.167 200.191 345.169 200.395 341.772 205.745ZM371.136 203.779C370.849 205.279 371.11 206.017 371.928 206.017C372.631 206.017 373.147 205.07 373.147 203.779C373.147 202.549 372.79 201.542 372.356 201.542C371.921 201.542 371.371 202.549 371.136 203.779ZM230.688 204.26C230.119 205.322 229.488 207.663 229.285 209.461C229.083 211.259 228.691 213.698 228.416 214.882C227.96 216.838 229.082 218.494 230.889 218.533C231.236 218.541 232.967 216.653 234.736 214.34L237.952 210.131L237.368 213.779C236.999 216.089 237.149 217.652 237.778 218.041C238.971 218.778 240.731 214.66 240.017 212.803C239.745 212.096 240.362 209.625 241.386 207.311C243.593 202.326 243.579 202.437 242.023 202.437C241.348 202.437 239.265 205.054 237.393 208.252C235.521 211.45 233.25 214.734 232.347 215.55C230.791 216.957 230.708 216.899 230.745 214.434C230.767 213.004 231.382 210.223 232.113 208.254C233.957 203.281 233.972 203.157 232.783 202.718C232.199 202.504 231.258 203.198 230.688 204.26ZM350.654 204.898C350.132 206.251 349.639 209.776 349.556 212.729C349.37 219.403 350.729 219.768 354.988 214.19L357.972 210.281L357.401 213.854C356.715 218.134 358.358 219.861 359.717 216.288C360.213 214.987 360.405 213.578 360.145 213.158C359.886 212.738 360.488 210.255 361.483 207.64C363.632 201.99 363.582 202.437 362.067 202.437C361.392 202.437 359.31 205.054 357.437 208.252C355.566 211.45 353.295 214.734 352.392 215.55C350.84 216.954 350.751 216.905 350.751 214.668C350.751 213.366 351.557 210.182 352.541 207.593C354.682 201.968 354.643 202.437 352.968 202.437C352.217 202.437 351.175 203.544 350.654 204.898ZM366.968 203.256C366.039 203.844 365.893 204.935 366.402 207.494C366.779 209.388 367.14 212.148 367.206 213.624C367.311 216.028 367.019 216.339 364.412 216.59C360.841 216.934 360.527 218.547 364.033 218.547C365.543 218.547 367.375 217.684 368.575 216.408C370.511 214.348 370.538 214.103 369.276 209.858C368.406 206.931 368.249 204.942 368.809 203.943C369.728 202.302 368.941 202.008 366.968 203.256ZM69.4128 205.346C69.3564 208.25 67.192 213.906 65.3672 215.921C62.8202 218.733 61.3896 218.09 61.3896 214.13C61.3896 209.213 62.6796 206.345 65.6037 204.76C68.9891 202.927 69.4585 202.999 69.4128 205.346ZM106.913 205.793C106.708 207.58 106.061 208.335 104.555 208.548C102.516 208.837 102.505 208.794 103.907 206.087C105.676 202.667 107.292 202.509 106.913 205.793ZM175.517 207.283C174.972 208.7 171.58 209.323 171.58 208.007C171.58 207.623 172.242 206.366 173.051 205.212C174.297 203.435 174.64 203.324 175.292 204.488C175.715 205.245 175.816 206.502 175.517 207.283ZM224.435 205.598C224.435 210.211 220.202 217.652 217.577 217.652C215.983 217.652 216.015 210.803 217.623 207.905C218.703 205.957 222.104 203.442 223.763 203.363C224.133 203.346 224.435 204.351 224.435 205.598Z" fill="white"/>
</svg>
