<svg width="78" height="80" viewBox="0 0 78 80" fill="none" xmlns="http://www.w3.org/2000/svg">
<path fill-rule="evenodd" clip-rule="evenodd" d="M39.4229 1.63084C36.1825 4.88827 32.2985 11.212 30.9475 15.4303L30.4789 16.8932L28.1338 17.7098C23.6104 19.2851 18.7243 22.2166 15.2562 25.4366C12.4945 28.0008 12.5273 28.2598 15.9905 31.2086C19.5128 34.2077 23.8559 36.7237 28.2335 38.3007L30.3895 39.0775L31.2829 41.3071C33.3173 46.3851 35.9073 50.5317 39.2235 54.0206C41.5798 56.4994 41.9867 56.494 44.4147 53.9511C47.6725 50.5388 50.2694 46.3703 52.2847 41.3179L53.1695 39.0991L55.6182 38.1915C60.2175 36.486 65.0499 33.548 68.6578 30.2627C70.9256 28.198 70.8893 27.8119 68.1956 25.3362C64.5865 22.0192 59.3544 18.9124 55.1119 17.5677L53.0559 16.9162L52.5876 15.4777C50.6109 9.40698 44.0444 0 41.7838 0C41.2651 0 40.5627 0.484998 39.4229 1.63084ZM39.912 3.32153C33.7954 10.3733 30.5489 18.7328 30.5454 27.4407L30.5443 30.3478H34.3798C37.0131 30.3478 38.3713 30.4601 38.7128 30.7058C39.1428 31.0155 39.199 31.5044 39.1281 34.322C39.0515 37.3641 39.0076 37.5803 38.4696 37.5803C37.9382 37.5803 37.8869 37.3641 37.8108 34.8149L37.7284 32.0496H34.0242C29.2091 32.0496 29.0094 31.9217 28.8647 28.7448C28.7728 26.7208 29.3785 20.9712 29.8572 19.325C30.0327 18.7223 29.9826 18.6747 29.3615 18.8548C27.7782 19.314 21.9858 22.214 20.3313 23.3761C17.5404 25.3359 14.9819 27.5229 14.9819 27.9484C14.9819 28.4175 18.2929 31.2614 20.7561 32.9075C26.5018 36.7475 35.164 39.2951 41.7423 39.0798L44.2335 38.9984L44.3104 35.0276C44.375 31.7036 44.466 30.999 44.8701 30.7024C45.6076 30.1604 51.1144 30.2185 51.5824 30.7733C51.8686 31.1128 51.8686 31.2846 51.5824 31.6241C51.31 31.9469 50.5717 32.0496 48.5212 32.0496H45.8185V35.6734C45.8185 40.7024 45.9505 40.5612 41.2631 40.5484C39.2512 40.543 36.5675 40.3541 35.2995 40.1286C32.0536 39.5515 32.1953 39.4891 32.8723 41.1965C34.6041 45.5646 37.3825 50.0319 40.1503 52.8988L41.7904 54.5977L43.4721 52.8336C49.3719 46.6446 53.0233 37.3834 53.0233 28.6089V25.5262H49.0238C45.9569 25.5262 44.9467 25.434 44.6914 25.1311C44.4706 24.8696 44.3856 23.6469 44.4398 21.5149C44.5162 18.5096 44.5603 18.2938 45.098 18.2938C45.6292 18.2938 45.6808 18.5099 45.7566 21.0373L45.839 23.7808L49.7097 23.8735C54.5024 23.9884 54.5617 24.0275 54.7044 27.1656C54.7975 29.219 54.1199 35.6624 53.6966 36.7484C53.5323 37.1696 53.6248 37.2107 54.345 37.0357C55.705 36.7056 60.3074 34.4791 62.4519 33.1137C64.9695 31.511 68.5858 28.4595 68.5858 27.9379C68.5858 27.3667 63.8753 23.6435 61.0919 22.0149C58.1071 20.2681 54.6588 18.8798 51.0697 17.9801C48.0362 17.2197 41.2538 16.5186 39.9786 16.8334L39.1901 17.0283V20.9369C39.1901 23.5987 39.0797 24.9541 38.8442 25.1859C38.6186 25.4079 37.4304 25.5262 35.4211 25.5262C32.9455 25.5262 32.2688 25.4372 31.9593 25.0701C31.2622 24.2431 32.355 23.8245 35.2104 23.8245H37.7491V20.1373C37.7491 15.2593 37.701 15.312 42.1441 15.3259C43.9274 15.3313 46.7036 15.5582 48.3134 15.8297L51.2409 16.3234L50.5832 14.6041C49.6598 12.1902 48.5814 10.1478 46.8399 7.51605C45.2937 5.17955 42.1752 1.41812 41.7838 1.41812C41.6625 1.41812 40.8201 2.27467 39.912 3.32153ZM2.10423 62.9318C0.114257 63.8487 -0.00476528 64.319 0.000134 71.2465C0.00301593 75.5088 0.110514 77.4939 0.364412 77.9883C0.99642 79.2172 2.48926 79.9821 4.25531 79.9821C7.33667 79.9821 8.75775 78.2103 8.58483 74.5836L8.49751 72.7497L6.6963 72.6652L4.89509 72.581V74.5629C4.89509 76.6013 4.6069 77.1672 3.87374 76.5684C3.53597 76.2925 3.45499 75.2788 3.45845 71.3679C3.46105 68.6959 3.57748 66.3318 3.71754 66.114C3.8576 65.8965 4.18009 65.7967 4.4337 65.8925C4.79163 66.0275 4.89509 66.4822 4.89509 67.9193V69.7717H6.76835H8.64161L8.64103 67.7154C8.64045 64.3695 7.46405 62.801 4.74696 62.5231C3.68266 62.4144 2.99734 62.5202 2.10423 62.9318ZM61.7602 62.9318C60.1602 63.6692 59.6518 64.6951 59.6518 67.1864C59.6518 69.7966 59.912 70.3687 61.7274 71.7477C64.5836 73.9177 64.5511 73.8771 64.5511 75.264C64.5511 75.9686 64.4156 76.6274 64.2502 76.7281C63.664 77.0846 63.1101 76.2372 63.1101 74.9841V73.7424H61.381H59.6518V75.732C59.6518 77.594 59.7138 77.788 60.6187 78.7597C61.4856 79.6909 61.7648 79.8108 63.3179 79.9214C66.7045 80.1625 68.0094 78.8814 68.0094 75.3154C68.0094 72.5554 67.6454 71.8747 65.2828 70.2155C63.3631 68.8675 62.9859 68.2528 63.1597 66.757C63.2286 66.1628 63.4101 65.9427 63.8306 65.9427C64.3234 65.9427 64.4196 66.1605 64.4946 67.4448L64.5822 68.9472L66.3678 68.8629L68.1535 68.779L68.1085 66.8551C68.0408 63.9735 67.0206 62.7897 64.3712 62.5196C63.3421 62.4144 62.6435 62.5248 61.7602 62.9318ZM12.3881 62.7553C12.3881 62.8098 11.8699 66.4847 11.2368 70.922C10.6033 75.3591 10.0846 79.2129 10.084 79.4858C10.0829 79.9078 10.3633 79.9821 11.9558 79.9821H13.8291V78.8476C13.8291 77.9281 13.9314 77.7131 14.3686 77.7131C14.7752 77.7131 14.9536 77.9925 15.0925 78.8476L15.277 79.9821H17.1643H19.052L18.8693 78.7767C18.7687 78.1139 18.2064 74.2529 17.6194 70.1971L16.5519 62.8228L14.47 62.7395C13.325 62.6938 12.3881 62.7009 12.3881 62.7553ZM20.7457 71.3316V79.9821H22.4749H24.204V77.1459C24.204 75.586 24.3084 74.3096 24.436 74.3096C24.5637 74.3096 24.8329 75.2989 25.0343 76.5077C25.6583 80.2521 25.4741 79.9821 27.4053 79.9821C28.6073 79.9821 29.1033 79.8744 29.1033 79.6131C29.1033 79.4101 28.7817 78.1655 28.3889 76.8478C27.5038 73.8788 27.5038 73.868 28.3828 72.8399C29.0659 72.0409 29.1033 71.8157 29.1033 68.5118C29.1033 65.3661 29.0425 64.9503 28.4785 64.2449C27.5353 63.0645 26.277 62.681 23.3487 62.681H20.7457V71.3316ZM31.1884 71.2607L31.2648 79.8403L34.651 79.9203L38.0373 80V78.4313V76.8623H36.4522H34.8672V74.8769V72.8915H36.4522H38.0373V71.3316V69.7717H36.4522H34.8672V67.7863V65.8009H36.4522H38.0373V64.241V62.681H34.5747H31.1123L31.1884 71.2607ZM40.1224 71.2607L40.1987 79.8403H41.9187H43.6383L43.5654 77.2877C43.5254 75.8838 43.4357 74.1607 43.3666 73.4588C43.245 72.2264 43.6876 73.7869 44.7346 78.2804L45.098 79.8403H46.8272H48.5564L48.6327 71.2607L48.7088 62.681H46.8661H45.0231L45.1701 65.8718C45.2511 67.6269 45.2508 68.9988 45.1695 68.9208C45.0885 68.8428 44.7306 67.4071 44.3741 65.73L43.726 62.681H41.8861H40.0463L40.1224 71.2607ZM51.006 71.3407V80L54.3923 79.9203L57.7785 79.8403L57.8656 78.3513L57.9529 76.8623H56.2085H54.4643V74.8911V72.9199L56.1214 72.8348L57.7785 72.7497L57.8656 71.2607L57.9529 69.7717H56.2085H54.4643V67.7863V65.8009H56.1935H57.9226V64.241V62.681H54.4643H51.006V71.3407ZM69.4504 64.2333V65.8009H70.5982H71.7458L71.8231 72.8206L71.9 79.8403H73.6292H75.3583L75.4353 72.8368L75.5125 65.833L76.7321 65.7462L77.952 65.6591V64.241V62.8228L73.7012 62.7443L69.4504 62.666V64.2333ZM24.204 68.4953C24.204 70.8741 24.2231 70.943 24.8525 70.8551C25.4632 70.7697 25.5009 70.6324 25.5009 68.4953C25.5009 66.3582 25.4632 66.221 24.8525 66.1356C24.2231 66.0477 24.204 66.1166 24.204 68.4953ZM45.2877 69.7717C45.2877 70.1616 45.3531 70.3213 45.4329 70.1262C45.513 69.9313 45.513 69.6123 45.4329 69.4171C45.3531 69.2223 45.2877 69.3817 45.2877 69.7717ZM14.3112 71.9953C14.0916 74.1772 14.1654 74.9242 14.5617 74.534C14.6478 74.4495 14.6801 73.3113 14.6337 72.0049L14.5496 69.6298L14.3112 71.9953Z" fill="white"/>
</svg>
